<svg version="1.1" id="Layer_1" xmlns="http://www.w3.org/2000/svg" xmlns:xlink="http://www.w3.org/1999/xlink" viewBox="0 0 234 256" xml:space="preserve">

<path fill="#828C94" opacity="1.000000" stroke="none"
	d="
M113.009438,210.000336
	C113.111862,209.275650 113.214287,208.550980 113.653641,207.231049
	C121.219193,187.804886 128.447830,168.973984 136.104721,149.027466
	C122.840591,149.027466 111.031044,149.027466 98.574020,149.027466
	C99.539391,147.510513 99.922974,146.789841 100.414581,146.152512
	C112.916496,129.944427 125.407768,113.728043 137.948395,97.549927
	C146.906113,85.993965 155.932724,74.491417 165.275177,62.974625
	C166.702850,63.311192 167.783920,63.638172 168.864990,63.965153
	C168.666763,64.535431 168.468536,65.105698 167.803375,65.965210
	C167.112427,66.521530 167.024338,66.827805 167.072205,67.173271
	C165.381577,72.342232 163.865356,77.576317 161.964600,82.666817
	C157.787094,93.854904 153.415176,104.970390 148.917892,116.647011
	C161.092316,116.647011 172.739914,116.647011 185.027588,116.647011
	C185.027588,111.780983 185.027588,107.070717 185.027588,102.360443
	C185.450516,102.123703 185.873444,101.886963 186.296387,101.650215
	C198.363800,111.823494 210.431213,121.996765 223.468948,132.988052
	C210.526154,143.832870 198.401947,153.991776 185.135880,165.107468
	C185.135880,158.955551 185.135880,154.138687 185.135880,148.952423
	C177.919968,148.952423 171.462723,148.717255 165.046783,149.127670
	C163.554306,149.223129 161.907455,151.307190 160.830536,152.829254
	C146.996964,172.380569 133.254013,191.995987 118.852859,211.787445
	C116.481552,211.319916 114.745499,210.660126 113.009438,210.000336
z"/>

<path fill="#4373B9" opacity="1.000000" stroke="none"
	d="
M37.737808,59.928913
	C38.191898,59.653584 38.645988,59.378254 39.653969,58.928978
	C40.426941,58.419018 40.646019,58.083004 40.875580,57.817131
	C40.886059,57.887268 40.747265,57.858063 41.035339,57.781300
	C41.476658,57.356998 41.629902,57.009460 41.783146,56.661926
	C41.783146,56.661926 41.869347,56.779984 42.083817,56.744751
	C42.470905,56.385017 42.643517,56.060520 42.816132,55.736027
	C42.816132,55.736027 42.789627,55.843487 43.117645,55.854496
	C45.918720,53.181343 48.391773,50.497181 50.891468,47.851917
	C50.918110,47.890816 50.825909,47.910564 51.091747,47.824921
	C51.528194,47.422150 51.698803,47.105022 51.843002,46.789230
	C51.816589,46.790565 51.794403,46.742382 52.153816,46.789875
	C56.409271,43.649879 60.305317,40.462391 64.996758,36.624157
	C64.996758,48.158661 65.077850,58.589882 64.867912,69.015244
	C64.847527,70.027596 63.047256,71.843262 62.040741,71.866272
	C52.413918,72.086357 42.777374,72.106987 33.151909,71.860809
	C32.012764,71.831673 30.923286,69.860809 29.810785,68.790039
	C29.810785,68.790039 29.880981,68.860031 30.125023,68.776619
	C30.544720,68.338326 30.720373,67.983452 30.896029,67.628571
	C30.896029,67.628571 30.901466,67.220535 31.149429,66.964279
	C31.816807,66.439415 32.236221,66.170815 32.949265,65.832031
	C33.450588,65.434326 33.658287,65.106804 33.868824,64.836998
	C33.871666,64.894707 33.764690,64.850998 34.042259,64.784119
	C34.481491,64.390900 34.643158,64.064568 34.824333,63.792282
	C34.843842,63.846325 34.735840,63.807064 35.018265,63.756317
	C35.469318,63.381882 35.637947,63.058186 35.829140,62.786121
	C35.851704,62.837749 35.742619,62.809494 36.023693,62.758362
	C36.475769,62.386131 36.646770,62.065033 36.844048,61.796703
	C36.870327,61.849472 36.752579,61.843498 37.048248,61.755157
	C37.520889,61.310551 37.697857,60.954277 37.855137,60.427750
	C37.835445,60.257492 37.737808,59.928913 37.737808,59.928913
z"/>
<path fill="#678CBC" opacity="1.000000" stroke="none"
	d="
M82.796318,152.978897
	C82.295029,154.483948 81.793724,155.989014 81.112579,158.034012
	C95.014488,158.034012 108.562195,158.034012 123.016396,158.034012
	C117.153236,173.577438 111.559273,188.407211 105.941422,203.614838
	C105.235596,205.620682 104.553658,207.248672 103.649399,209.391312
	C103.341331,210.260147 103.255585,210.614319 103.169830,210.968506
	C102.786835,211.743805 102.403839,212.519104 101.578384,213.617859
	C100.420685,214.043442 99.705437,214.145599 98.990189,214.247772
	C96.948868,214.193939 94.907539,214.140106 92.014435,214.072083
	C89.440155,214.115952 87.717659,214.174057 85.995155,214.232147
	C74.972801,214.174545 63.950443,214.116974 52.072113,214.048889
	C50.142315,214.099930 49.068485,214.161499 47.994659,214.223083
	C41.670261,213.846481 35.345863,213.469879 28.492208,212.773056
	C27.653366,212.280289 27.343781,212.107758 27.034197,211.935211
	C27.034197,211.935211 27.013504,212.001862 27.019047,211.740662
	C27.024590,211.479477 26.971169,210.997940 27.402384,210.998047
	C29.950790,211.337372 32.066956,211.963684 34.185333,211.971283
	C54.979385,212.045700 75.774529,212.087891 96.566689,211.875992
	C98.136353,211.860016 100.505241,210.164978 101.117035,208.679718
	C107.082695,194.196609 112.788673,179.605682 118.449066,164.999130
	C118.977188,163.636337 118.684807,161.955566 118.798531,159.987534
	C106.835022,159.987534 95.546173,160.083344 84.262512,159.884827
	C82.558609,159.854874 80.878838,158.453186 79.187897,157.686020
	C80.390701,156.116974 81.593506,154.547928 82.796318,152.978897
z"/>

<path fill="#527CB4" opacity="1.000000" stroke="none"
	d="
M153.027817,31.296719
	C153.471344,31.245436 153.914856,31.194155 155.055328,31.147467
	C157.849854,31.736340 159.947433,32.320621 162.027039,33.183807
	C162.004044,33.648975 161.999069,33.835232 161.579666,33.961899
	C159.051498,33.601700 156.938416,33.044884 154.823944,33.039654
	C130.400162,32.979233 105.975388,33.100849 81.552940,32.910000
	C77.290443,32.876682 75.766296,33.829269 75.886765,38.385540
	C76.211617,50.672009 76.075562,62.973770 75.903893,75.266411
	C75.881912,76.840065 74.563492,78.395615 73.907448,79.497169
	C73.932205,63.348667 73.895172,47.662552 73.911087,32.005409
	C73.964027,32.034386 74.084343,32.043842 74.287018,31.976360
	C74.760811,31.786184 74.960411,31.590542 75.088516,31.321953
	C75.088516,31.321953 75.123169,31.144665 75.396065,31.146929
	C76.113342,31.088354 76.557716,31.027517 77.002098,30.966681
	C79.366943,31.045570 81.731789,31.124460 84.877716,31.473089
	C92.115189,31.592741 98.571579,31.442650 105.027977,31.292561
	C107.722351,31.242104 110.416733,31.191643 113.984062,31.149609
	C116.892693,31.207926 118.928375,31.257814 121.234055,31.509483
	C123.014671,31.575760 124.525284,31.440254 126.481934,31.267223
	C129.619064,31.144426 132.310165,31.059156 135.001251,30.973885
	C136.710144,31.051876 138.419022,31.129869 140.886017,31.474586
	C145.438690,31.593113 149.233261,31.444914 153.027817,31.296719
z"/>
<path fill="#527CB4" opacity="1.000000" stroke="none"
	d="
M59.573990,80.528641
	C63.984394,80.525955 67.978363,80.570526 72.253006,80.966492
	C70.760735,81.548943 68.988770,81.971123 67.214699,81.980141
	C55.390972,82.040283 43.564030,82.158463 31.744223,81.935211
	C27.473721,81.854553 25.901564,83.106094 25.918653,87.583183
	C26.071869,127.717667 26.025333,167.852905 25.720230,208.010056
	C25.192247,208.056229 24.981565,208.080246 24.503036,207.886658
	C24.250116,206.758987 24.265043,205.848953 24.495884,204.685638
	C24.537107,202.968964 24.362423,201.505539 24.095932,199.661652
	C24.064617,198.505951 24.125113,197.730743 24.447552,196.641174
	C24.811047,195.341125 25.001360,194.355438 25.001331,193.369751
	C25.000261,155.898026 24.981710,118.426292 24.965492,80.954559
	C24.965494,80.954559 24.922215,80.650749 25.254385,80.605133
	C26.072590,80.452187 26.558622,80.344849 27.044655,80.237503
	C33.055527,80.333427 39.066402,80.429352 45.854034,80.522362
	C47.102161,80.417534 47.573536,80.315620 48.044910,80.213699
	C49.097763,80.310486 50.150620,80.407265 51.948997,80.517845
	C53.478550,80.422668 54.262573,80.313690 55.046597,80.204720
	C56.416916,80.328445 57.787235,80.452171 59.573990,80.528641
z"/>
<path fill="#567AA5" opacity="1.000000" stroke="none"
	d="
M66.985596,43.593365
	C67.059868,53.523766 67.059868,63.050728 67.059868,73.410164
	C63.333229,73.410164 60.122261,73.410164 56.450607,73.463791
	C46.600803,73.497551 37.211685,73.477692 27.380644,73.083382
	C26.959414,72.139107 26.980103,71.569290 27.000790,70.999466
	C27.749231,70.330635 28.497673,69.661804 29.528450,68.891510
	C30.923286,69.860809 32.012764,71.831673 33.151909,71.860809
	C42.777374,72.106987 52.413918,72.086357 62.040741,71.866272
	C63.047256,71.843262 64.847527,70.027596 64.867912,69.015244
	C65.077850,58.589882 64.996758,48.158661 64.996758,36.624157
	C60.305317,40.462391 56.409271,43.649879 52.200111,46.465832
	C52.964630,44.745838 54.042263,43.397385 55.119896,42.048927
	C55.453930,42.010124 55.713387,41.850273 56.271309,41.215744
	C57.795803,39.588005 58.947254,38.313904 60.098701,37.039803
	C62.080173,35.399986 64.061646,33.760178 66.429794,32.466980
	C66.900337,33.537746 66.984222,34.261902 67.068108,34.986053
	C67.015839,37.720676 66.963577,40.455303 66.985596,43.593365
z"/>

<path fill="#6186B6" opacity="1.000000" stroke="none"
	d="
M24.447550,196.641174
	C24.123585,163.592041 24.060789,130.228577 24.000385,96.865105
	C23.991369,91.885017 23.993586,86.904922 23.973270,81.455406
	C24.123341,80.951729 24.290745,80.917473 24.711821,80.918884
	C24.981710,118.426292 25.000261,155.898026 25.001331,193.369751
	C25.001360,194.355438 24.811047,195.341125 24.447550,196.641174
z"/>
<path fill="#898F95" opacity="1.000000" stroke="none"
	d="
M112.803940,210.288254
	C114.745499,210.660126 116.481552,211.319916 118.577225,211.978333
	C115.125832,217.564774 111.314835,223.152588 106.934654,228.922852
	C105.928772,229.061890 105.492058,229.018448 105.055359,228.975006
	C105.706871,227.552048 106.358383,226.129089 107.278824,224.124207
	C108.287384,221.356750 109.027008,219.171219 109.766632,216.985687
	C110.710571,214.849182 111.654503,212.712677 112.803940,210.288254
z"/>

<path fill="#6388B7" opacity="1.000000" stroke="none"
	d="
M162.027039,33.183807
	C167.260193,35.229935 165.843460,40.017635 166.310928,44.576065
	C166.298492,45.449894 166.192322,45.888126 166.038635,46.661503
	C163.572800,49.935307 161.154480,52.873959 158.390625,55.600124
	C159.224487,53.280556 160.241287,51.060040 161.616089,49.089260
	C164.792511,44.535862 165.021439,38.777969 161.994095,34.021492
	C161.999069,33.835232 162.004044,33.648975 162.027039,33.183807
z"/>

<path fill="#969BA0" opacity="1.000000" stroke="none"
	d="
M165.275177,62.974625
	C166.936981,60.090919 168.945374,57.216808 170.953781,54.342693
	C171.322159,54.464962 171.690536,54.587227 172.058914,54.709492
	C171.734329,56.230919 171.409729,57.752350 171.062439,59.638611
	C170.478836,61.184456 169.917923,62.365475 169.110992,63.755821
	C167.783920,63.638172 166.702850,63.311192 165.275177,62.974625
z"/>

<path fill="#567AA5" opacity="1.000000" stroke="none"
	d="
M48.024857,49.339127
	C48.865047,48.669754 49.565090,48.291130 50.564980,47.862762
	C48.391773,50.497181 45.918720,53.181343 43.080177,55.813770
	C42.777443,55.380394 42.840195,54.998756 43.205906,54.244965
	C43.701256,53.590919 43.893650,53.309029 44.086044,53.027138
	C45.352264,51.894714 46.618484,50.762291 48.024857,49.339127
z"/>
<path fill="#8BA7C3" opacity="1.000000" stroke="none"
	d="
M104.570969,31.173790
	C98.571579,31.442650 92.115189,31.592741 85.318573,31.514805
	C91.356888,31.209526 97.735420,31.132273 104.570969,31.173790
z"/>

<path fill="#8BA7C3" opacity="1.000000" stroke="none"
	d="
M152.577896,31.178703
	C149.233261,31.444914 145.438690,31.593113 141.311508,31.516994
	C144.695251,31.215347 148.411606,31.138018 152.577896,31.178703
z"/>

<path fill="#ADC2D7" opacity="1.000000" stroke="none"
	d="
M24.943371,73.233574
	C25.130833,72.557419 25.462086,72.100441 25.913343,71.391479
	C26.033346,71.139496 26.514271,71.050201 26.757530,71.024834
	C26.980103,71.569290 26.959414,72.139107 26.908684,73.137848
	C26.281485,73.528755 25.684324,73.490753 24.943371,73.233574
z"/>

<path fill="#8BA7C3" opacity="1.000000" stroke="none"
	d="
M74.287018,31.976360
	C74.061836,31.875393 74.039330,31.706944 74.045471,31.285397
	C74.251060,31.052299 74.428001,31.072304 74.846733,31.207130
	C74.960411,31.590542 74.760811,31.786184 74.287018,31.976360
z"/>

<path fill="#567AA5" opacity="1.000000" stroke="none"
	d="
M42.550995,55.816582
	C42.643517,56.060520 42.470905,56.385017 42.012115,56.758904
	C41.912579,56.504578 42.099220,56.200855 42.550995,55.816582
z"/>

<path fill="#567AA5" opacity="1.000000" stroke="none"
	d="
M41.035339,57.781300
	C40.774117,57.659084 40.800972,57.460110 40.890564,56.966255
	C40.953304,56.671375 41.368690,56.665348 41.575920,56.663635
	C41.629902,57.009460 41.476658,57.356998 41.035339,57.781300
z"/>

<path fill="#567AA5" opacity="1.000000" stroke="none"
	d="
M39.679726,58.187901
	C39.887714,57.915344 40.082157,57.876167 40.570847,57.791992
	C40.646019,58.083004 40.426941,58.419018 39.900749,58.819092
	C39.593632,58.883160 39.666187,58.421280 39.679726,58.187901
z"/>
<path fill="#969BA0" opacity="1.000000" stroke="none"
	d="
M167.212006,66.987755
	C167.024338,66.827805 167.112427,66.521530 167.526672,66.104919
	C167.631989,66.253532 167.510284,66.535812 167.212006,66.987755
z"/>
<path fill="#567AA5" opacity="1.000000" stroke="none"
	d="
M30.624660,67.753555
	C30.720373,67.983452 30.544720,68.338326 30.077877,68.791916
	C29.975555,68.553268 30.164425,68.215912 30.624660,67.753555
z"/>
<path fill="#4A7ECD" opacity="1.000000" stroke="none"
	d="
M27.402384,210.998047
	C26.971169,210.997940 26.568764,210.895859 26.363113,210.868423
	C26.157465,210.840988 26.101124,210.442047 26.270435,210.103317
	C26.305676,209.172363 26.171602,208.580139 26.037529,207.987915
	C26.025333,167.852905 26.071869,127.717667 25.918653,87.583183
	C25.901564,83.106094 27.473721,81.854553 31.744223,81.935211
	C43.564030,82.158463 55.390972,82.040283 67.214699,81.980141
	C68.988770,81.971123 70.760735,81.548943 72.704277,80.914719
	C72.874878,80.511543 72.890549,80.218468 72.936523,80.079025
	C72.982506,79.939590 73.414047,79.967941 73.629852,79.963745
	C74.563492,78.395615 75.881912,76.840065 75.903893,75.266411
	C76.075562,62.973770 76.211617,50.672009 75.886765,38.385540
	C75.766296,33.829269 77.290443,32.876682 81.552940,32.910000
	C105.975388,33.100849 130.400162,32.979233 154.823944,33.039654
	C156.938416,33.044884 159.051498,33.601700 161.579666,33.961899
	C165.021439,38.777969 164.792511,44.535862 161.616089,49.089260
	C160.241287,51.060040 159.224487,53.280556 158.099762,55.763985
	C158.154449,56.140339 158.126984,56.118717 157.758881,56.104668
	C156.615158,57.423313 155.839539,58.756012 155.063919,60.088711
	C155.063919,60.088711 155.017563,60.006840 154.701141,60.041451
	C151.955124,63.421448 149.525528,66.766830 147.095932,70.112213
	C147.095932,70.112213 147.058517,69.994446 146.733978,70.038788
	C144.648514,72.766556 142.887589,75.449982 141.126663,78.133408
	C141.126663,78.133408 141.100464,77.993423 140.767517,78.046547
	C138.641830,80.789009 136.849121,83.478355 135.056412,86.167702
	C135.034546,86.468536 134.905960,86.713318 134.113800,86.995575
	C129.968933,89.631287 126.502068,92.260216 126.297737,97.225594
	C126.297737,97.225594 126.222511,97.266479 125.888077,97.224701
	C125.221344,97.904037 124.889030,98.625168 124.556725,99.346291
	C124.556725,99.346291 124.466095,99.356201 124.068695,99.358978
	C122.824715,100.955994 121.978142,102.550240 121.131569,104.144485
	C121.131569,104.144485 121.085579,103.998405 120.755913,104.052826
	C119.330421,105.786697 118.234596,107.466156 117.138763,109.145607
	C117.138763,109.145607 117.115395,108.997414 116.770340,109.052155
	C115.638138,110.434540 114.851006,111.762184 114.063866,113.089821
	C114.063866,113.089821 114.020386,113.005692 113.703171,113.039146
	C111.444092,115.032692 109.197014,116.776619 107.623871,118.997856
	C104.343086,123.630241 101.418503,128.514908 98.347565,133.295914
	C98.347565,133.295914 98.187721,133.292297 97.939911,133.325256
	C97.483490,133.936676 97.274879,134.515167 97.066269,135.093643
	C97.066269,135.093643 97.028358,135.004395 96.706696,135.039948
	C94.609985,137.744324 92.834930,140.413147 91.059875,143.081985
	C91.059875,143.081985 91.012421,143.005356 90.686043,143.042999
	C89.726608,144.166107 89.093559,145.251572 88.460510,146.337036
	C88.460503,146.337036 88.401146,146.216599 88.027596,146.275970
	C86.434868,148.210831 85.215683,150.086349 83.996490,151.961853
	C83.733803,152.191666 83.471123,152.421478 83.002373,152.815094
	C81.593506,154.547928 80.390701,156.116974 79.187897,157.686020
	C80.878838,158.453186 82.558609,159.854874 84.262512,159.884827
	C95.546173,160.083344 106.835022,159.987534 118.798531,159.987534
	C118.684807,161.955566 118.977188,163.636337 118.449066,164.999130
	C112.788673,179.605682 107.082695,194.196609 101.117035,208.679718
	C100.505241,210.164978 98.136353,211.860016 96.566689,211.875992
	C75.774529,212.087891 54.979385,212.045700 34.185333,211.971283
	C32.066956,211.963684 29.950790,211.337372 27.402384,210.998047
z"/>
<path fill="#6388B7" opacity="1.000000" stroke="none"
	d="
M98.651215,133.179260
	C101.418503,128.514908 104.343086,123.630241 107.623871,118.997856
	C109.197014,116.776619 111.444092,115.032692 113.742126,113.066055
	C109.050491,119.727211 104.002678,126.394905 98.651215,133.179260
z"/>
<path fill="#6388B7" opacity="1.000000" stroke="none"
	d="
M126.587570,97.071777
	C126.502068,92.260216 129.968933,89.631287 133.926880,87.096123
	C131.823685,90.374741 129.350555,93.646347 126.587570,97.071777
z"/>
<path fill="#6388B7" opacity="1.000000" stroke="none"
	d="
M147.405243,69.981232
	C149.525528,66.766830 151.955124,63.421448 154.740784,60.066780
	C152.636078,63.321747 150.175323,66.585999 147.405243,69.981232
z"/>
<path fill="#6388B7" opacity="1.000000" stroke="none"
	d="
M141.420334,77.974281
	C142.887589,75.449982 144.648514,72.766556 146.770279,70.088806
	C145.325409,72.668030 143.519714,75.241592 141.420334,77.974281
z"/>
<path fill="#6388B7" opacity="1.000000" stroke="none"
	d="
M135.345993,85.989838
	C136.849121,83.478355 138.641830,80.789009 140.798706,78.110580
	C139.320435,80.684982 137.477997,83.248482 135.345993,85.989838
z"/>
<path fill="#6388B7" opacity="1.000000" stroke="none"
	d="
M91.350319,142.916504
	C92.834930,140.413147 94.609985,137.744324 96.744713,135.070038
	C95.283180,137.626724 93.461967,140.188858 91.350319,142.916504
z"/>
<path fill="#6388B7" opacity="1.000000" stroke="none"
	d="
M84.322632,151.876617
	C85.215683,150.086349 86.434868,148.210831 88.020401,146.342712
	C87.140755,148.163849 85.894753,149.977615 84.322632,151.876617
z"/>
<path fill="#6388B7" opacity="1.000000" stroke="none"
	d="
M117.430695,108.995102
	C118.234596,107.466156 119.330421,105.786697 120.797928,104.116852
	C120.020615,105.699173 118.871620,107.271881 117.430695,108.995102
z"/>
<path fill="#6388B7" opacity="1.000000" stroke="none"
	d="
M121.428635,103.989799
	C121.978142,102.550240 122.824715,100.955994 124.047699,99.399445
	C123.524635,100.903130 122.625168,102.369118 121.428635,103.989799
z"/>
<path fill="#6388B7" opacity="1.000000" stroke="none"
	d="
M114.355133,112.947769
	C114.851006,111.762184 115.638138,110.434540 116.801216,109.120529
	C116.333572,110.358009 115.489990,111.581856 114.355133,112.947769
z"/>
<path fill="#6388B7" opacity="1.000000" stroke="none"
	d="
M155.349533,59.935150
	C155.839539,58.756012 156.615158,57.423313 157.764160,56.093582
	C157.303406,57.324890 156.469284,58.553238 155.349533,59.935150
z"/>
<path fill="#6388B7" opacity="1.000000" stroke="none"
	d="
M88.749954,146.237320
	C89.093559,145.251572 89.726608,144.166107 90.724396,143.066650
	C90.405876,144.080978 89.722633,145.109283 88.749954,146.237320
z"/>
<path fill="#6388B7" opacity="1.000000" stroke="none"
	d="
M124.821594,99.257095
	C124.889030,98.625168 125.221344,97.904037 125.927063,97.242393
	C125.895805,97.923882 125.491135,98.545898 124.821594,99.257095
z"/>
<path fill="#6388B7" opacity="1.000000" stroke="none"
	d="
M97.340233,134.963852
	C97.274879,134.515167 97.483490,133.936676 98.013260,133.293457
	C98.094345,133.763824 97.854271,134.298950 97.340233,134.963852
z"/>
<path fill="#567AA5" opacity="1.000000" stroke="none"
	d="
M51.091747,47.824921
	C50.997768,47.594372 51.169632,47.278183 51.605453,46.874943
	C51.698803,47.105022 51.528194,47.422150 51.091747,47.824921
z"/>
<path fill="#567AA5" opacity="1.000000" stroke="none"
	d="
M37.048248,61.755157
	C36.946548,61.510906 37.140518,61.178310 37.604660,60.721863
	C37.697857,60.954277 37.520889,61.310551 37.048248,61.755157
z"/>
<path fill="#567AA5" opacity="1.000000" stroke="none"
	d="
M36.023693,62.758362
	C35.928104,62.509171 36.113590,62.208851 36.558426,61.826233
	C36.646770,62.065033 36.475769,62.386131 36.023693,62.758362
z"/>
<path fill="#567AA5" opacity="1.000000" stroke="none"
	d="
M35.018265,63.756317
	C34.918125,63.503113 35.100410,63.199165 35.544640,62.814854
	C35.637947,63.058186 35.469318,63.381882 35.018265,63.756317
z"/>
<path fill="#567AA5" opacity="1.000000" stroke="none"
	d="
M34.042259,64.784119
	C33.936749,64.538528 34.108803,64.226059 34.542839,63.825912
	C34.643158,64.064568 34.481491,64.390900 34.042259,64.784119
z"/>
<path fill="#567AA5" opacity="1.000000" stroke="none"
	d="
M32.949265,65.832031
	C32.873642,65.588272 33.091644,65.274330 33.587814,64.869835
	C33.658287,65.106804 33.450588,65.434326 32.949265,65.832031
z"/>
<path fill="#8BA7C3" opacity="1.000000" stroke="none"
	d="
M121.234055,31.509483
	C122.379440,31.230698 123.794830,31.153692 125.623062,31.190718
	C124.525284,31.440254 123.014671,31.575760 121.234055,31.509483
z"/>
<path fill="#6186B6" opacity="1.000000" stroke="none"
	d="
M24.495884,204.685638
	C24.205860,203.577194 24.131750,202.215485 24.122688,200.447937
	C24.362423,201.505539 24.537107,202.968964 24.495884,204.685638
z"/>
<path fill="#6186B6" opacity="1.000000" stroke="none"
	d="
M25.720230,208.010056
	C26.171602,208.580139 26.305676,209.172363 26.208485,209.911621
	C25.977222,210.058670 25.513306,210.031876 25.285110,209.988403
	C25.002962,209.534302 24.949005,209.123642 24.832966,208.408630
	C24.981565,208.080246 25.192247,208.056229 25.720230,208.010056
z"/>
</svg>
